<?xml version="1.0" encoding="utf-8"?>
<!-- Generator: Adobe Illustrator 16.0.0, SVG Export Plug-In . SVG Version: 6.00 Build 0)  -->
<!DOCTYPE svg PUBLIC "-//W3C//DTD SVG 1.1//EN" "http://www.w3.org/Graphics/SVG/1.1/DTD/svg11.dtd">
<svg version="1.1" id="Layer_1" xmlns="http://www.w3.org/2000/svg" xmlns:xlink="http://www.w3.org/1999/xlink" x="0px" y="0px"
	 width="49.326px" height="88.157px" viewBox="0 0 49.326 88.157" enable-background="new 0 0 49.326 88.157" xml:space="preserve">
<path fill="#666666" d="M0.389,29.749L0.001,47.388c-0.052,2.408,1.845,2.973,4.23,1.23l11.336-8.297
	c5.021,3.746,9.806,8.243,13.468,12.997c5.603,7.391,10.526,24.625,6.247,34.839c8.892-7.701,10.09-30.018,7.768-41.826
	c-1.403-7.473-3.614-14.402-6.763-21.153l11.232-8.216c2.371-1.737,2.414-3.709,0.092-4.389L30.665,7.612
	c-2.321-0.679-6.11-1.796-8.436-2.483L5.282,0.17c-2.318-0.68-4.27,0.738-4.324,3.152L0.575,20.956
	C0.525,23.38,0.439,27.335,0.389,29.749z"/>
</svg>
