<?xml version="1.0" encoding="utf-8"?>
<!-- Generator: Adobe Illustrator 16.0.0, SVG Export Plug-In . SVG Version: 6.00 Build 0)  -->
<!DOCTYPE svg PUBLIC "-//W3C//DTD SVG 1.1//EN" "http://www.w3.org/Graphics/SVG/1.1/DTD/svg11.dtd">
<svg version="1.1" id="Layer_1" xmlns="http://www.w3.org/2000/svg" xmlns:xlink="http://www.w3.org/1999/xlink" x="0px" y="0px"
	 width="98.019px" height="72.654px" viewBox="0.991 3.416 98.019 72.654" enable-background="new 0.991 3.416 98.019 72.654"
	 xml:space="preserve">
<linearGradient id="SVGID_1_" gradientUnits="userSpaceOnUse" x1="50.0005" y1="3.416" x2="50.0005" y2="76.0708">
	<stop  offset="0" style="stop-color:#EE78F0"/>
	<stop  offset="1" style="stop-color:#E26EE4"/>
</linearGradient>
<path fill="url(#SVGID_1_)" d="M99.01,48.042c0,15.454-12.574,28.028-28.029,28.028c-2.767,0-5.008-2.242-5.008-5.008
	c0-2.769,2.241-5.011,5.008-5.011c9.934,0,18.012-8.079,18.012-18.011c0-9.931-8.078-18.013-18.012-18.013
	c-0.437,0-0.883,0.018-1.33,0.05c-2.207,0.162-4.254-1.145-5.043-3.209C61.54,18.833,53.7,13.433,45.097,13.433
	c-11.508,0-20.872,9.364-20.872,20.874c0,0.303,0.006,0.616,0.021,0.962c0.106,2.329-1.411,4.424-3.658,5.048
	c-5.64,1.574-9.579,6.765-9.579,12.625c0,7.229,5.879,13.109,13.109,13.109c4.973,0,9.449-2.775,11.676-7.15l-1.707,1.113
	c-2.317,1.508-5.421,0.854-6.932-1.464c-1.512-2.317-0.857-5.42,1.462-6.932l11.764-7.669c1.115-0.725,2.47-0.979,3.768-0.704
	c1.3,0.274,2.439,1.055,3.163,2.166l7.668,11.766c1.513,2.316,0.857,5.421-1.459,6.933c-0.845,0.551-1.793,0.812-2.729,0.812
	c-1.639,0-3.243-0.802-4.202-2.273l-0.913-1.398c-0.049,0.171-0.109,0.338-0.177,0.505C41.914,70.451,33.52,76.07,24.118,76.07
	c-12.753,0-23.127-10.375-23.127-23.127c0-9.037,5.312-17.176,13.299-20.934C15.468,16.045,28.835,3.416,45.096,3.416
	c6.384,0,12.509,1.931,17.72,5.583c4.105,2.882,7.41,6.66,9.692,11.052C87.259,20.849,99.01,33.1,99.01,48.042z"/>
</svg>
