<?xml version="1.0" encoding="utf-8"?>
<!-- Generator: Adobe Illustrator 16.0.0, SVG Export Plug-In . SVG Version: 6.00 Build 0)  -->
<!DOCTYPE svg PUBLIC "-//W3C//DTD SVG 1.1//EN" "http://www.w3.org/Graphics/SVG/1.1/DTD/svg11.dtd">
<svg version="1.1" id="Layer_1" xmlns="http://www.w3.org/2000/svg" xmlns:xlink="http://www.w3.org/1999/xlink" x="0px" y="0px"
	 width="100px" height="81.414px" viewBox="0 0 100 81.414" enable-background="new 0 0 100 81.414" xml:space="preserve">
<linearGradient id="SVGID_1_" gradientUnits="userSpaceOnUse" x1="49.9995" y1="0" x2="49.9995" y2="81.4141">
	<stop  offset="0" style="stop-color:#9092F0"/>
	<stop  offset="1" style="stop-color:#8284E1"/>
</linearGradient>
<path fill="url(#SVGID_1_)" d="M97.932,73.828h-7.586v-0.69v-2.759v-0.689h7.586c1.143,0,2.068-0.925,2.068-2.068
	c0-1.143-0.927-2.068-2.068-2.068h-7.586v-3.448h-2.76c-6.896,0-8.275,4.828-11.034,4.828c-7.985,0-14.733,1.864-14.925,1.919
	c-7.869,2.038-14.852,2.794-20.938,2.777c-7.675-0.026-14.082-1.883-19.142-5.594C12.77,59.591,9.655,48.354,9.655,40.69
	c0-20.25,18.022-31.035,31.034-31.035c22.366,0,28.276,15.791,28.276,24.139c0,6.54-3.697,18.618-8.966,18.618
	c-3.338,0-4.827-0.781-4.827-4.912l2.068-26.121h-8.275l-0.717,2.869c-2.178-2.604-5.121-4.247-8.938-4.247
	c-11.207,0-18.562,10.117-18.909,19.31c-0.285,7.581,1.603,23.825,18.909,22.069c2.859-0.291,5.975-2.053,8.521-5.057
	c2.403,3.688,6.591,5.742,12.169,5.742c13.932,0,18.621-19.415,18.621-28.273C78.621,20.21,68.52,0,40.689,0
	C23.632,0,0,14.141,0,40.69c0,10.396,4.159,24.558,15.835,33.126c6.765,4.963,15.078,7.457,24.854,7.477
	c6.935,0,14.854-0.895,23.443-3.119c0.058-0.014,5.812-1.588,12.419-1.588c2.76,0,4.139,4.828,11.034,4.828h2.759v-3.449h7.586
	c1.144,0,2.069-0.926,2.069-2.068S99.073,73.828,97.932,73.828z M39.311,52.195c-3.392,0.275-9.655-0.471-9.655-11.505
	c0-6.095,4.013-11.319,9.53-11.319c3.047,0,7.649,0.627,7.649,11.319C46.835,47.412,43.435,51.861,39.311,52.195z"/>
</svg>
