<?xml version="1.0" encoding="utf-8"?>
<!-- Generator: Adobe Illustrator 16.0.0, SVG Export Plug-In . SVG Version: 6.00 Build 0)  -->
<!DOCTYPE svg PUBLIC "-//W3C//DTD SVG 1.1//EN" "http://www.w3.org/Graphics/SVG/1.1/DTD/svg11.dtd">
<svg version="1.1" id="Layer_1" xmlns="http://www.w3.org/2000/svg" xmlns:xlink="http://www.w3.org/1999/xlink" x="0px" y="0px"
	 width="78.112px" height="74.729px" viewBox="12.308 9.625 78.112 74.729" enable-background="new 12.308 9.625 78.112 74.729"
	 xml:space="preserve">
<g id="Your_Icon">
	<path fill="#333333" d="M70.955,45.421c-2.58,4.932-10.918-0.996-19.526-3.178v21.849c0.271,0.243,0.54,0.487,0.787,0.753
		l30.417,0.042c4.305,0,7.787,3.486,7.787,7.787v3.893c0,4.301-3.482,7.786-7.787,7.786c0,0-23.701,0-38.929,0
		c-6.45,0-11.679-5.229-11.679-11.679l-0.068-30.503c-9.277,2.121-15.188,8.63-19.397,3.252C9.375,41.353,37.376,9.625,41.265,9.625
		C45.151,9.625,73.257,41.022,70.955,45.421z"/>
</g>
</svg>
