<?xml version="1.0" encoding="utf-8"?>
<!-- Generator: Adobe Illustrator 16.0.0, SVG Export Plug-In . SVG Version: 6.00 Build 0)  -->
<!DOCTYPE svg PUBLIC "-//W3C//DTD SVG 1.1//EN" "http://www.w3.org/Graphics/SVG/1.1/DTD/svg11.dtd">
<svg version="1.1" id="Layer_1" xmlns="http://www.w3.org/2000/svg" xmlns:xlink="http://www.w3.org/1999/xlink" x="0px" y="0px"
	 width="32px" height="32px" viewBox="0 0 32 32" enable-background="new 0 0 32 32" xml:space="preserve">
<g>
	<defs>
		<rect id="SVGID_1_" x="3.25" y="5.517" width="25.5" height="20.966"/>
	</defs>
	<clipPath id="SVGID_2_">
		<use xlink:href="#SVGID_1_"  overflow="visible"/>
	</clipPath>
</g>
<path fill="#000000" d="M30.267,17.186c0.027-0.041,0.059-0.089,0.085-0.132c0.028-0.05,0.052-0.104,0.08-0.154c0.011-0.028,0.026-0.056,0.038-0.08
	c0.007-0.017,0.009-0.033,0.016-0.049c0.021-0.057,0.037-0.11,0.056-0.166c0.016-0.046,0.028-0.091,0.036-0.138
	c0.016-0.055,0.021-0.11,0.029-0.166c0.006-0.05,0.013-0.093,0.02-0.14c0.002-0.057,0.002-0.116,0.002-0.17
	c0-0.052,0-0.096-0.002-0.14c-0.004-0.06-0.014-0.119-0.025-0.176c-0.004-0.047-0.008-0.089-0.02-0.132
	c-0.012-0.06-0.031-0.115-0.049-0.173c-0.012-0.042-0.025-0.087-0.043-0.13c-0.004-0.02-0.011-0.04-0.02-0.058
	c-0.012-0.037-0.035-0.069-0.049-0.102c-0.022-0.044-0.041-0.084-0.064-0.128c-0.029-0.051-0.062-0.101-0.097-0.149
	c-0.026-0.039-0.049-0.075-0.075-0.112c-0.04-0.05-0.081-0.092-0.123-0.141c-0.018-0.019-0.036-0.041-0.056-0.064L19.988,4.472
	c-0.837-0.839-2.19-0.839-3.026,0c-0.835,0.834-0.835,2.188,0,3.025l6.365,6.363H3.511c-0.739,0-1.39,0.375-1.775,0.942
	C1.508,15.145,1.372,15.554,1.372,16c0,0.59,0.24,1.126,0.626,1.512c0.387,0.389,0.921,0.627,1.513,0.627h19.816l-6.365,6.363
	c-0.835,0.838-0.835,2.189,0,3.026c0.418,0.418,0.968,0.628,1.514,0.628c0.549,0,1.096-0.208,1.513-0.626l10.02-10.019
	c0.018-0.021,0.038-0.048,0.059-0.068c0.04-0.044,0.078-0.088,0.113-0.134C30.211,17.272,30.237,17.229,30.267,17.186z"/>
</svg>
