<?xml version="1.0" encoding="utf-8"?>
<!-- Generator: Adobe Illustrator 16.0.0, SVG Export Plug-In . SVG Version: 6.00 Build 0)  -->
<!DOCTYPE svg PUBLIC "-//W3C//DTD SVG 1.1//EN" "http://www.w3.org/Graphics/SVG/1.1/DTD/svg11.dtd">
<svg version="1.1" id="Layer_1" xmlns="http://www.w3.org/2000/svg" xmlns:xlink="http://www.w3.org/1999/xlink" x="0px" y="0px"
	 width="32px" height="32px" viewBox="0 0 32 32" enable-background="new 0 0 32 32" xml:space="preserve">
<path fill="#333333" d="M18.064,4.794c-3.588,0-6.958,1.332-9.491,3.747c-1.188,1.133-2.115,2.444-2.776,3.864L0.511,6.761v13.777
	h12.907l-4.45-4.746c0.363-1.681,1.222-3.229,2.528-4.469c1.752-1.671,4.087-2.594,6.569-2.594c2.482,0,4.815,0.923,6.57,2.594
	c1.756,1.672,2.724,3.897,2.724,6.264c0,2.366-0.968,4.589-2.724,6.263c-0.806,0.765-0.806,2.014,0,2.781
	c0.4,0.384,0.932,0.575,1.461,0.575c0.526,0,1.056-0.191,1.458-0.575c2.539-2.418,3.935-5.629,3.935-9.044
	c0-3.417-1.396-6.627-3.935-9.046C25.021,6.126,21.652,4.794,18.064,4.794z"/>
</svg>
