<?xml version="1.0" encoding="utf-8"?>
<!-- Generator: Adobe Illustrator 16.0.0, SVG Export Plug-In . SVG Version: 6.00 Build 0)  -->
<!DOCTYPE svg PUBLIC "-//W3C//DTD SVG 1.1//EN" "http://www.w3.org/Graphics/SVG/1.1/DTD/svg11.dtd">
<svg version="1.1" id="Layer_1" xmlns="http://www.w3.org/2000/svg" xmlns:xlink="http://www.w3.org/1999/xlink" x="0px" y="0px"
	 width="165px" height="165px" viewBox="0 0 165 165" enable-background="new 0 0 165 165" xml:space="preserve">
<g>
	<defs>
		<rect id="SVGID_1_" width="165" height="164.999"/>
	</defs>
	<clipPath id="SVGID_2_">
		<use xlink:href="#SVGID_1_"  overflow="visible"/>
	</clipPath>
	<path clip-path="url(#SVGID_2_)" fill="#010101" d="M140.835,24.164c32.219,32.218,32.219,84.454,0,116.671
		c-32.217,32.219-84.454,32.219-116.672,0c-32.218-32.217-32.218-84.453,0-116.671C56.382-8.055,108.618-8.055,140.835,24.164"/>
	<path clip-path="url(#SVGID_2_)" fill="#D6D6D5" d="M118.205,51.556v7.945c0,1.104-0.896,2-2,2h-67.36c-1.104,0-2-0.896-2-2l0,0
		v-7.945c0-1.105,0.896-2,2-2l0,0h67.36C117.309,49.556,118.205,50.45,118.205,51.556z"/>
	<path clip-path="url(#SVGID_2_)" fill="#FFFFFF" d="M118.205,69.435v7.943c0,1.105-0.896,2-2,2h-67.41c-1.104,0-2-0.895-2-2l0,0
		v-7.943c0-1.105,0.896-2,2-2l0,0h67.41C117.309,67.435,118.205,68.329,118.205,69.435z"/>
	<path clip-path="url(#SVGID_2_)" fill="#D6D6D5" d="M118.205,87.466v7.945c0,1.105-0.896,2-2,2h-67.41c-1.104,0-2-0.895-2-2l0,0
		v-7.945c0-1.104,0.896-2,2-2l0,0h67.41C117.309,85.466,118.205,86.362,118.205,87.466z"/>
	<path clip-path="url(#SVGID_2_)" fill="#FFFFFF" d="M118.205,105.499v7.945c0,1.104-0.896,2-2,2h-67.41c-1.104,0-2-0.896-2-2l0,0
		v-7.945c0-1.105,0.896-2,2-2l0,0h67.41C117.309,103.499,118.205,104.394,118.205,105.499z"/>
</g>
<g>
	<defs>
		<rect id="SVGID_3_" width="165" height="164.999"/>
	</defs>
	<clipPath id="SVGID_4_">
		<use xlink:href="#SVGID_3_"  overflow="visible"/>
	</clipPath>
	<path clip-path="url(#SVGID_4_)" fill="#010101" d="M140.835,24.164c32.219,32.218,32.219,84.454,0,116.671
		c-32.217,32.219-84.454,32.219-116.672,0c-32.218-32.217-32.218-84.453,0-116.671C56.382-8.055,108.618-8.055,140.835,24.164"/>
	<path clip-path="url(#SVGID_4_)" fill="#D6D6D5" d="M118.205,51.556v7.945c0,1.104-0.896,2-2,2h-67.36c-1.104,0-2-0.896-2-2l0,0
		v-7.945c0-1.105,0.896-2,2-2l0,0h67.36C117.309,49.556,118.205,50.45,118.205,51.556z"/>
	<path clip-path="url(#SVGID_4_)" fill="#FFFFFF" d="M118.205,69.435v7.943c0,1.105-0.896,2-2,2h-67.41c-1.104,0-2-0.895-2-2l0,0
		v-7.943c0-1.105,0.896-2,2-2l0,0h67.41C117.309,67.435,118.205,68.329,118.205,69.435z"/>
	<path clip-path="url(#SVGID_4_)" fill="#D6D6D5" d="M118.205,87.466v7.945c0,1.105-0.896,2-2,2h-67.41c-1.104,0-2-0.895-2-2l0,0
		v-7.945c0-1.104,0.896-2,2-2l0,0h67.41C117.309,85.466,118.205,86.362,118.205,87.466z"/>
	<path clip-path="url(#SVGID_4_)" fill="#FFFFFF" d="M118.205,105.499v7.945c0,1.104-0.896,2-2,2h-67.41c-1.104,0-2-0.896-2-2l0,0
		v-7.945c0-1.105,0.896-2,2-2l0,0h67.41C117.309,103.499,118.205,104.394,118.205,105.499z"/>
</g>
</svg>
