<?xml version="1.0" encoding="utf-8"?>
<!-- Generator: Adobe Illustrator 17.1.0, SVG Export Plug-In . SVG Version: 6.00 Build 0)  -->
<!DOCTYPE svg PUBLIC "-//W3C//DTD SVG 1.1//EN" "http://www.w3.org/Graphics/SVG/1.1/DTD/svg11.dtd">
<svg version="1.1" id="Layer_1" xmlns="http://www.w3.org/2000/svg" xmlns:xlink="http://www.w3.org/1999/xlink" x="0px" y="0px"
	 viewBox="0 0 100 100" enable-background="new 0 0 100 100" xml:space="preserve">
<path d="M77.3,38.8C68.9,28.7,60.5,18.6,52,8.5c-0.6-0.7-1.3-1-2-1c-0.7,0-1.4,0.2-2,1c-8.4,10.1-16.8,20.2-25.2,30.3
	c-1.6,1.9-0.7,4.9,2,4.9c3.5,0,7.1,0,10.6,0c0,15.3,0,30.6,0,45.9c0,1.6,1.3,2.9,2.9,2.9c7.8,0,15.7,0,23.5,0c1.6,0,2.9-1.3,2.9-2.9
	c0-15.3,0-30.6,0-45.9c3.5,0,7.1,0,10.6,0C78,43.7,78.9,40.7,77.3,38.8z"/>
</svg>
