<?xml version="1.0" encoding="utf-8"?>
<!-- Generator: Adobe Illustrator 17.1.0, SVG Export Plug-In . SVG Version: 6.00 Build 0)  -->
<!DOCTYPE svg PUBLIC "-//W3C//DTD SVG 1.1//EN" "http://www.w3.org/Graphics/SVG/1.1/DTD/svg11.dtd">
<svg version="1.1" id="Layer_1" xmlns="http://www.w3.org/2000/svg" xmlns:xlink="http://www.w3.org/1999/xlink" x="0px" y="0px"
	 viewBox="0 0 27 27" enable-background="new 0 0 27 27" xml:space="preserve">
<path d="M20.8,20.6c-3.5-1.3-4.6-2.3-4.6-4.6c0-1.4,1.1-0.9,1.5-3.4c0.2-1,1.1,0,1.3-2.4c0-0.9-0.5-1.2-0.5-1.2s0.3-1.4,0.4-2.5
	c0.1-1.3-0.8-4.8-5.6-4.8c-4.8,0-5.7,3.5-5.6,4.8C7.9,7.6,8.1,9,8.1,9s-0.5,0.2-0.5,1.2c0.2,2.4,1.1,1.3,1.3,2.4
	c0.5,2.5,1.5,2.1,1.5,3.4c0,2.3-1.1,3.3-4.6,4.6c-3.5,1.3-5.7,2.6-5.7,3.4c0,0.9,0,3,0,3h26.4c0,0,0-2.1,0-3
	C26.5,23.2,24.3,21.9,20.8,20.6L20.8,20.6z"/>
</svg>
