<?xml version="1.0" encoding="utf-8"?>
<!-- Generator: Adobe Illustrator 17.1.0, SVG Export Plug-In . SVG Version: 6.00 Build 0)  -->
<!DOCTYPE svg PUBLIC "-//W3C//DTD SVG 1.1//EN" "http://www.w3.org/Graphics/SVG/1.1/DTD/svg11.dtd">
<svg version="1.1" id="Layer_1" xmlns="http://www.w3.org/2000/svg" xmlns:xlink="http://www.w3.org/1999/xlink" x="0px" y="0px"
	 viewBox="0 0 27 27" enable-background="new 0 0 27 27" xml:space="preserve">
<path d="M22.4,6.6c-0.7-3.9-4.2-6.5-7.9-5.8c-3.7,0.7-6.8,3.7-6.2,7.5c0.1,0.8,0.5,2.1,1,3.1l-6.7,10c-0.2,0.4-0.4,1-0.3,1.5
	l0.4,2.6c0.1,0.4,0.5,0.7,0.9,0.7l2-0.4c0.4-0.1,1-0.5,1.2-0.8l2.7-4.3l1.8-0.3l3.1-5c1,0.2,2.5,0.1,3.3,0
	C21.4,14.6,23,10.5,22.4,6.6L22.4,6.6z M19.1,8.6c-1,1.5-2.1,0.4-3.5-0.6c-1.5-1.1-2.8-1.7-1.8-3.2c1-1.5,3-1.9,4.5-0.8
	C19.8,5,20.1,7.1,19.1,8.6z"/>
</svg>
