<?xml version="1.0" encoding="utf-8"?>
<!-- Generator: Adobe Illustrator 16.0.0, SVG Export Plug-In . SVG Version: 6.00 Build 0)  -->
<!DOCTYPE svg PUBLIC "-//W3C//DTD SVG 1.1//EN" "http://www.w3.org/Graphics/SVG/1.1/DTD/svg11.dtd">
<svg version="1.1" id="Layer_1" xmlns="http://www.w3.org/2000/svg" xmlns:xlink="http://www.w3.org/1999/xlink" x="0px" y="0px"
	 width="420.896px" height="562.275px" viewBox="0 90 420.896 562.275" enable-background="new 0 90 420.896 562.275"
	 xml:space="preserve">
<path fill="#333333" d="M386.325,336.712H351.9V231.525C351.9,153.112,288.788,90,210.375,90S70.763,153.112,70.763,231.525v105.188
	H34.425C15.3,336.712,0,352.013,0,371.138V617.85c0,19.125,15.3,34.426,34.425,34.426h351.9c19.125,0,34.425-15.301,34.425-34.426
	V371.138C422.662,352.013,405.45,336.712,386.325,336.712z M210.375,547.088c-19.125,0-34.425-15.301-34.425-34.426
	s15.3-34.425,34.425-34.425s34.425,15.3,34.425,34.425S229.5,547.088,210.375,547.088z M281.138,336.712H141.525V231.525
	c0-38.25,30.6-70.762,70.763-70.762s70.762,30.6,70.762,70.762v105.188H281.138z"/>
</svg>
