<?xml version="1.0" encoding="utf-8"?>
<!-- Generator: Adobe Illustrator 16.0.0, SVG Export Plug-In . SVG Version: 6.00 Build 0)  -->
<!DOCTYPE svg PUBLIC "-//W3C//DTD SVG 1.1//EN" "http://www.w3.org/Graphics/SVG/1.1/DTD/svg11.dtd">
<svg version="1.1" id="Layer_1" xmlns="http://www.w3.org/2000/svg" xmlns:xlink="http://www.w3.org/1999/xlink" x="0px" y="0px"
	 width="32px" height="32px" viewBox="0 0 32 32" enable-background="new 0 0 32 32" xml:space="preserve">
<g>
	<defs>
		<rect id="SVGID_1_" width="32" height="32"/>
	</defs>
	<clipPath id="SVGID_2_">
		<use xlink:href="#SVGID_1_"  overflow="visible"/>
	</clipPath>
	<path clip-path="url(#SVGID_2_)" fill="#333333" d="M31.086,12.338H26.5c-0.273-0.878-0.656-1.71-1.123-2.479l3.042-3.051
		c0.718-0.709,0.718-1.87,0-2.583l-1.293-1.289c-0.713-0.713-1.872-0.709-2.583,0l-3.097,3.091c-0.834-0.479-1.74-0.848-2.704-1.096
		V0.912c0-1.007-0.816-1.83-1.828-1.83h-1.828c-1.008,0-1.826,0.823-1.826,1.83v4.019c-1.051,0.266-2.037,0.685-2.941,1.233
		l-2.59-2.587c-0.711-0.709-1.874-0.711-2.587,0L3.845,4.869C3.134,5.58,3.143,6.746,3.852,7.459l2.636,2.636
		c-0.557,0.973-0.974,2.035-1.213,3.158H1.831C0.819,13.253,0,14.071,0,15.083v1.829c0,1.007,0.819,1.825,1.831,1.825h3.676
		c0.333,1.102,0.836,2.118,1.479,3.044l-2.487,2.487c-0.715,0.715-0.715,1.876-0.004,2.589l1.291,1.291
		c0.718,0.709,1.878,0.709,2.59-0.005l2.778-2.775c0.937,0.465,1.951,0.803,3.02,0.977v3.822c0,1.01,0.818,1.828,1.828,1.833h1.828
		c1.007-0.005,1.829-0.823,1.829-1.833v-4.295c0.922-0.326,1.795-0.761,2.585-1.316l2.945,2.945c0.713,0.713,1.87,0.713,2.587,0
		l1.291-1.293c0.718-0.711,0.718-1.869-0.004-2.587l-3.227-3.233c0.396-0.801,0.704-1.656,0.895-2.563h4.355
		c1.014,0,1.83-0.813,1.834-1.83v-1.826C32.916,13.161,32.1,12.338,31.086,12.338 M16.003,20.109c-2.524,0-4.571-2.039-4.571-4.569
		c0-2.526,2.047-4.569,4.571-4.569c2.526,0,4.574,2.043,4.574,4.569C20.577,18.07,18.529,20.109,16.003,20.109"/>
</g>
</svg>
