<?xml version="1.0" encoding="utf-8"?>
<!-- Generator: Adobe Illustrator 17.1.0, SVG Export Plug-In . SVG Version: 6.00 Build 0)  -->
<!DOCTYPE svg PUBLIC "-//W3C//DTD SVG 1.1//EN" "http://www.w3.org/Graphics/SVG/1.1/DTD/svg11.dtd">
<svg version="1.1" id="Layer_1" xmlns="http://www.w3.org/2000/svg" xmlns:xlink="http://www.w3.org/1999/xlink" x="0px" y="0px"
	 viewBox="0 0 32 32" enable-background="new 0 0 32 32" xml:space="preserve">
<path fill="#333333" d="M24.8,30.3c2.1-3.3,3.2-7.2,3.2-11c0-1.7-0.2-3.3-0.6-4.9c-0.3-1.1-1.2-2-2.4-2c-0.7,0-1.4,0.3-1.8,0.8V13
	c0-1.3-1.1-2.4-2.4-2.4c-1.3,0-2.4,1.1-2.4,2.4v-1.2c0-1.3-1.1-2.4-2.4-2.4s-2.4,1.1-2.4,2.4V4.1c0-1.3-1.1-2.4-2.4-2.4
	S8.9,2.7,8.9,4.1v13.6c0,0.7-0.5,1.2-1.2,1.2c-0.1,0-0.2,0-0.3,0L4,17.5c-0.3-0.2-0.7-0.3-1.1-0.3c-1.3,0-2.4,1.1-2.4,2.4
	c0,1,0.6,1.8,1.5,2.2c3.9,2,7,4.4,9.1,8.5L24.8,30.3L24.8,30.3z"/>
</svg>
