<?xml version="1.0" encoding="utf-8"?>
<!-- Generator: Adobe Illustrator 16.0.0, SVG Export Plug-In . SVG Version: 6.00 Build 0)  -->
<!DOCTYPE svg PUBLIC "-//W3C//DTD SVG 1.1//EN" "http://www.w3.org/Graphics/SVG/1.1/DTD/svg11.dtd">
<svg version="1.1" id="Layer_1" xmlns="http://www.w3.org/2000/svg" xmlns:xlink="http://www.w3.org/1999/xlink" x="0px" y="0px"
	 width="54px" height="35.5px" viewBox="0 0 54 35.5" enable-background="new 0 0 54 35.5" xml:space="preserve">
<path fill="#333333" d="M45.02,28.555V3.299c0-0.491-0.396-0.889-0.889-0.889H9.866c-0.49,0-0.888,0.397-0.888,0.889v25.255
	c0,0.489,0.398,0.888,0.888,0.888h9.487c0.491,0,0.888,0.397,0.888,0.888v0.476c0,0.491-0.397,0.888-0.888,0.888h-2.729
	c-0.491,0-0.888,0.397-0.888,0.889v0.475c0,0.491,0.397,0.889,0.888,0.889h20.749c0.492,0,0.889-0.397,0.889-0.889v-0.475
	c0-0.491-0.396-0.889-0.889-0.889h-2.727c-0.492,0-0.889-0.397-0.889-0.888l0,0v-0.476c0-0.491,0.396-0.888,0.889-0.888l0,0h9.484
	C44.623,29.443,45.02,29.044,45.02,28.555z M14.372,6.916h25.255c0.49,0,0.889,0.397,0.889,0.888v16.244
	c0,0.491-0.398,0.889-0.889,0.889H14.372c-0.491,0-0.888-0.397-0.888-0.889l0,0V7.804C13.483,7.313,13.881,6.916,14.372,6.916z"/>
</svg>
