<?xml version="1.0" encoding="utf-8"?>
<!-- Generator: Adobe Illustrator 16.0.0, SVG Export Plug-In . SVG Version: 6.00 Build 0)  -->
<!DOCTYPE svg PUBLIC "-//W3C//DTD SVG 1.1//EN" "http://www.w3.org/Graphics/SVG/1.1/DTD/svg11.dtd">
<svg version="1.1" id="Layer_1" xmlns="http://www.w3.org/2000/svg" xmlns:xlink="http://www.w3.org/1999/xlink" x="0px" y="0px"
	 width="54px" height="35.5px" viewBox="0 0 54 35.5" enable-background="new 0 0 54 35.5" xml:space="preserve">
<g>
	<path fill="#333333" d="M37.366,9.051c0,1.029-0.84,1.87-1.869,1.87H9.316c-1.028,0-1.87-0.841-1.87-1.87v-3.74
		c0-1.026,0.842-1.87,1.87-1.87h26.181c1.029,0,1.869,0.844,1.869,1.87V9.051z"/>
	<path fill="#333333" d="M46.983,20.271c0,1.029-0.842,1.872-1.871,1.872h-26.18c-1.028,0-1.87-0.843-1.87-1.872v-3.74
		c0-1.026,0.842-1.869,1.87-1.869h26.18c1.029,0,1.871,0.843,1.871,1.869V20.271z"/>
	<path fill="#333333" d="M46.983,31.49c0,1.028-0.842,1.871-1.871,1.871h-26.18c-1.028,0-1.87-0.843-1.87-1.871v-3.74
		c0-1.027,0.842-1.869,1.87-1.869h26.18c1.029,0,1.871,0.842,1.871,1.869V31.49z"/>
</g>
</svg>
