<?xml version="1.0" encoding="utf-8"?>
<!-- Generator: Adobe Illustrator 16.0.0, SVG Export Plug-In . SVG Version: 6.00 Build 0)  -->
<!DOCTYPE svg PUBLIC "-//W3C//DTD SVG 1.1//EN" "http://www.w3.org/Graphics/SVG/1.1/DTD/svg11.dtd">
<svg version="1.1" id="Layer_1" xmlns="http://www.w3.org/2000/svg" xmlns:xlink="http://www.w3.org/1999/xlink" x="0px" y="0px"
	 width="54px" height="35.5px" viewBox="0 0 54 35.5" enable-background="new 0 0 54 35.5" xml:space="preserve">
<g>
	<path fill="#333333" d="M34.448,31.052c-0.828,0-1.65-0.344-2.233-1.022c-1.06-1.233-0.924-3.089,0.308-4.148l9.9-8.555
		L32.64,9.726c-1.288-1.004-1.518-2.854-0.519-4.135c0.999-1.29,2.851-1.525,4.132-0.519l12.621,9.807
		c0.696,0.54,1.114,1.37,1.131,2.25c0.027,0.884-0.343,1.723-1.015,2.306L36.371,30.339C35.818,30.817,35.129,31.052,34.448,31.052z
		"/>
	<path fill="#333333" d="M19.559,31.052c-0.681,0-1.37-0.234-1.924-0.713L5.015,19.435c-0.669-0.583-1.04-1.422-1.019-2.306
		c0.023-0.88,0.44-1.71,1.136-2.25l12.622-9.807c1.278-1.007,3.13-0.771,4.13,0.519c0.999,1.281,0.764,3.131-0.517,4.135
		l-9.783,7.601l9.9,8.555c1.232,1.06,1.366,2.915,0.307,4.148C21.208,30.708,20.384,31.052,19.559,31.052z"/>
</g>
</svg>
