<?xml version="1.0" encoding="utf-8"?>
<!-- Generator: Adobe Illustrator 17.1.0, SVG Export Plug-In . SVG Version: 6.00 Build 0)  -->
<!DOCTYPE svg PUBLIC "-//W3C//DTD SVG 1.1//EN" "http://www.w3.org/Graphics/SVG/1.1/DTD/svg11.dtd">
<svg version="1.1" id="Layer_1" xmlns="http://www.w3.org/2000/svg" xmlns:xlink="http://www.w3.org/1999/xlink" x="0px" y="0px"
	 viewBox="0 0 32 32" enable-background="new 0 0 32 32" xml:space="preserve">
<path d="M16,0C7.2,0,0,7.2,0,16s7.2,16,16,16s16-7.2,16-16S24.8,0,16,0z M16,29C8.8,29,3,23.2,3,16S8.8,3,16,3s13,5.8,13,13
	S23.2,29,16,29z M19,13l-9-5H8v2l5,9l9,5h2v-2L19,13z M16,18c-1.1,0-2-0.9-2-2s0.9-2,2-2s2,0.9,2,2S17.1,18,16,18z"/>
</svg>
