<?xml version="1.0" encoding="utf-8"?>
<!-- Generator: Adobe Illustrator 16.0.0, SVG Export Plug-In . SVG Version: 6.00 Build 0)  -->
<!DOCTYPE svg PUBLIC "-//W3C//DTD SVG 1.1//EN" "http://www.w3.org/Graphics/SVG/1.1/DTD/svg11.dtd">
<svg version="1.1" id="Layer_1" xmlns="http://www.w3.org/2000/svg" xmlns:xlink="http://www.w3.org/1999/xlink" x="0px" y="0px"
	 width="165px" height="165px" viewBox="0 0 165 165" enable-background="new 0 0 165 165" xml:space="preserve">
<g>
	<defs>
		<rect id="SVGID_7_" width="165" height="165"/>
	</defs>
	<clipPath id="SVGID_2_">
		<use xlink:href="#SVGID_7_"  overflow="visible"/>
	</clipPath>
	<path clip-path="url(#SVGID_2_)" fill="#010101" d="M140.837,24.164c32.218,32.217,32.218,84.453,0,116.672
		c-32.219,32.219-84.455,32.219-116.673,0c-32.219-32.219-32.219-84.455,0-116.672C56.382-8.055,108.618-8.055,140.837,24.164"/>
	<path clip-path="url(#SVGID_2_)" fill="#D6D6D5" d="M118.204,51.555V59.5c0,1.105-0.895,2-2,2H48.795c-1.104,0-2-0.895-2-2l0,0
		v-7.945c0-1.104,0.896-2,2-2l0,0h67.409C117.31,49.555,118.204,50.451,118.204,51.555z"/>
	<path clip-path="url(#SVGID_2_)" fill="#FFFFFF" d="M118.204,69.434v7.945c0,1.104-0.895,2-2,2h-48.23c-1.104,0-2-0.896-2-2l0,0
		v-7.945c0-1.104,0.896-2,2-2l0,0h48.23C117.31,67.434,118.204,68.33,118.204,69.434z"/>
	<path clip-path="url(#SVGID_2_)" fill="#FFFFFF" d="M118.204,87.467v7.943c0,1.105-0.895,2-2,2h-48.23c-1.104,0-2-0.895-2-2l0,0
		v-7.943c0-1.105,0.896-2,2-2l0,0h48.23C117.31,85.467,118.204,86.361,118.204,87.467z"/>
	<path clip-path="url(#SVGID_2_)" fill="#FFFFFF" d="M118.204,105.5v7.943c0,1.105-0.895,2-2,2h-48.23c-1.104,0-2-0.895-2-2l0,0
		V105.5c0-1.105,0.896-2,2-2l0,0h48.23C117.31,103.5,118.204,104.395,118.204,105.5z"/>
	<path clip-path="url(#SVGID_2_)" fill="#FFFFFF" d="M60.826,69.434v7.945c0,1.104-0.895,2-2,2H48.795c-1.104,0-2-0.896-2-2l0,0
		v-7.945c0-1.104,0.896-2,2-2l0,0h10.031C59.932,67.434,60.826,68.33,60.826,69.434z"/>
	<path clip-path="url(#SVGID_2_)" fill="#FFFFFF" d="M60.826,87.467v7.943c0,1.105-0.895,2-2,2H48.795c-1.104,0-2-0.895-2-2l0,0
		v-7.943c0-1.105,0.896-2,2-2l0,0h10.031C59.932,85.467,60.826,86.361,60.826,87.467z"/>
	<path clip-path="url(#SVGID_2_)" fill="#FFFFFF" d="M60.826,105.5v7.943c0,1.105-0.895,2-2,2H48.795c-1.104,0-2-0.895-2-2l0,0
		V105.5c0-1.105,0.896-2,2-2l0,0h10.031C59.932,103.5,60.826,104.395,60.826,105.5z"/>
</g>
</svg>
