<?xml version="1.0" encoding="utf-8"?>
<!-- Generator: Adobe Illustrator 16.0.0, SVG Export Plug-In . SVG Version: 6.00 Build 0)  -->
<!DOCTYPE svg PUBLIC "-//W3C//DTD SVG 1.1//EN" "http://www.w3.org/Graphics/SVG/1.1/DTD/svg11.dtd">
<svg version="1.1" id="Layer_1" xmlns="http://www.w3.org/2000/svg" xmlns:xlink="http://www.w3.org/1999/xlink" x="0px" y="0px"
	 width="61px" height="60px" viewBox="0 0 61 60" enable-background="new 0 0 61 60" xml:space="preserve">
<g>
	<defs>
		<rect id="SVGID_1_" width="61" height="60"/>
	</defs>
	<clipPath id="SVGID_2_">
		<use xlink:href="#SVGID_1_"  overflow="visible"/>
	</clipPath>
	<path clip-path="url(#SVGID_2_)" fill="#999" d="M59.646,49.829L48.308,38.486c2.118-3.742,3.341-8.062,3.341-12.662
		C51.648,11.585,40.063,0,25.824,0S0,11.585,0,25.824s11.585,25.824,25.824,25.824c5.324,0,10.278-1.621,14.395-4.394L51.22,58.256
		C52.384,59.42,53.91,60,55.436,60c1.521,0,3.047-0.58,4.211-1.744C61.975,55.928,61.975,52.157,59.646,49.829 M7.946,25.824
		c0-9.856,8.021-17.878,17.878-17.878c9.857,0,17.879,8.021,17.879,17.878c0,9.857-8.021,17.879-17.879,17.879
		C15.967,43.703,7.946,35.682,7.946,25.824"/>
</g>
</svg>
