<?xml version="1.0" encoding="utf-8"?>
<!-- Generator: Adobe Illustrator 16.0.0, SVG Export Plug-In . SVG Version: 6.00 Build 0)  -->
<!DOCTYPE svg PUBLIC "-//W3C//DTD SVG 1.1//EN" "http://www.w3.org/Graphics/SVG/1.1/DTD/svg11.dtd">
<svg version="1.1" id="Layer_1" xmlns="http://www.w3.org/2000/svg" xmlns:xlink="http://www.w3.org/1999/xlink" x="0px" y="0px"
	 width="37.988px" height="35.5px" viewBox="7.934 0 37.988 35.5" enable-background="new 7.934 0 37.988 35.5"
	 xml:space="preserve">
<g>
	<path fill="#333333" d="M41.888,8.399c0,1.029-0.841,1.87-1.869,1.87H13.838c-1.028,0-1.87-0.841-1.87-1.87V4.66
		c0-1.026,0.842-1.87,1.87-1.87h26.181c1.028,0,1.869,0.844,1.869,1.87V8.399z"/>
	<path fill="#333333" d="M41.888,19.62c0,1.028-0.842,1.871-1.871,1.871H13.838c-1.028,0-1.87-0.843-1.87-1.871v-3.74
		c0-1.026,0.842-1.869,1.87-1.869h26.179c1.029,0,1.871,0.843,1.871,1.869V19.62z"/>
	<path fill="#333333" d="M41.888,30.839c0,1.027-0.842,1.871-1.871,1.871H13.838c-1.028,0-1.87-0.844-1.87-1.871v-3.74
		c0-1.027,0.842-1.869,1.87-1.869h26.179c1.029,0,1.871,0.842,1.871,1.869V30.839z"/>
</g>
</svg>
