<?xml version="1.0" encoding="utf-8"?>
<!-- Generator: Adobe Illustrator 17.1.0, SVG Export Plug-In . SVG Version: 6.00 Build 0)  -->
<!DOCTYPE svg PUBLIC "-//W3C//DTD SVG 1.1//EN" "http://www.w3.org/Graphics/SVG/1.1/DTD/svg11.dtd">
<svg version="1.1" id="Layer_1" xmlns="http://www.w3.org/2000/svg" xmlns:xlink="http://www.w3.org/1999/xlink" x="0px" y="0px"
	 viewBox="0 0 32 32" enable-background="new 0 0 32 32" xml:space="preserve">
<g>
	<path d="M13.1,5.7L13.1,5.7c0.5,0,0.9,0.1,1.3,0.3c0,0,0.1,0,0.1,0c0.1,0,0.2-0.1,0.3-0.2c0.1-0.2,0-0.3-0.1-0.4
		c-0.5-0.2-1-0.4-1.5-0.4l0,0c-0.2,0-0.3,0.1-0.3,0.3C12.8,5.5,12.9,5.7,13.1,5.7z"/>
	<path d="M15.5,6.8C15.8,7.2,16,7.5,16.2,8c0,0.1,0.2,0.2,0.3,0.2c0,0,0.1,0,0.1,0c0.2-0.1,0.2-0.2,0.2-0.4c-0.2-0.5-0.5-1-0.8-1.4
		c-0.1-0.1-0.3-0.1-0.4,0C15.4,6.5,15.3,6.7,15.5,6.8z"/>
	<path d="M9.3,10.1c-0.2,0.1-0.2,0.2-0.2,0.4c0.2,0.5,0.5,1,0.8,1.4C9.9,11.9,10,12,10.1,12c0.1,0,0.2,0,0.2-0.1
		c0.1-0.1,0.1-0.3,0-0.4c-0.3-0.3-0.5-0.7-0.7-1.2C9.6,10.1,9.4,10.1,9.3,10.1z"/>
	<path d="M10.4,6.7c0.1,0,0.2,0,0.2-0.1c0.3-0.3,0.7-0.5,1.2-0.7c0.2-0.1,0.2-0.2,0.2-0.4c-0.1-0.2-0.2-0.2-0.4-0.2
		c-0.5,0.2-1,0.5-1.4,0.8c-0.1,0.1-0.1,0.3,0,0.4C10.2,6.6,10.3,6.7,10.4,6.7z"/>
	<path d="M9.1,9.2c0.2,0,0.3-0.1,0.3-0.3l0,0c0-0.5,0.1-0.9,0.3-1.3c0.1-0.2,0-0.3-0.2-0.4c-0.2-0.1-0.3,0-0.4,0.1
		C9,7.9,8.9,8.4,8.8,8.9l0,0c0,0,0,0,0,0c0,0,0,0,0,0l0,0C8.8,9.1,9,9.2,9.1,9.2z"/>
	<path d="M9.5,2.2C9.6,2.2,9.6,2.2,9.5,2.2c0.5-0.2,1-0.4,1.4-0.5c0.2,0,0.3-0.2,0.2-0.4c0-0.2-0.2-0.3-0.4-0.2
		c-0.5,0.1-1,0.3-1.4,0.5C9.2,1.7,9.1,1.9,9.2,2C9.3,2.2,9.4,2.2,9.5,2.2z"/>
	<path d="M12.3,1.5c0.5,0,0.9,0,1.4,0c0,0,0.1,0,0.1,0c0.1,0,0.2-0.1,0.3-0.3c0-0.2-0.1-0.3-0.3-0.3c-0.5-0.1-1-0.1-1.5,0
		C12.1,0.9,12,1,12,1.2C12,1.3,12.2,1.5,12.3,1.5z"/>
	<path d="M20.1,6.5c0.1,0.1,0.2,0.2,0.3,0.2c0,0,0,0,0.1,0c0.2-0.1,0.2-0.2,0.2-0.4c-0.2-0.5-0.4-0.9-0.7-1.4
		c-0.1-0.1-0.3-0.2-0.4-0.1c-0.1,0.1-0.2,0.3-0.1,0.4C19.8,5.6,20,6,20.1,6.5z"/>
	<path d="M15.2,1.8c0.5,0.1,0.9,0.3,1.3,0.5c0.1,0,0.1,0,0.2,0c0.1,0,0.2-0.1,0.2-0.2c0.1-0.2,0-0.3-0.1-0.4
		c-0.5-0.2-0.9-0.4-1.4-0.6c-0.2,0-0.3,0-0.4,0.2C14.9,1.5,15,1.7,15.2,1.8z"/>
	<path d="M20.5,7.8L20.5,7.8c0.1,0.5,0.1,1,0.1,1.4c0,0.2,0.1,0.3,0.3,0.3c0,0,0,0,0.1,0c0.1,0,0.2-0.1,0.2-0.3c0-0.5,0-1-0.1-1.5
		l0,0c0-0.2-0.2-0.3-0.4-0.3S20.5,7.7,20.5,7.8z"/>
	<path d="M18.7,4c0.1,0.1,0.2,0.1,0.3,0.1c0.1,0,0.1,0,0.2-0.1c0.1-0.1,0.1-0.3,0-0.4c-0.3-0.4-0.7-0.7-1.1-1
		c-0.1-0.1-0.3-0.1-0.4,0.1c-0.1,0.1-0.1,0.3,0.1,0.4C18,3.4,18.4,3.7,18.7,4z"/>
	<path d="M20.5,10.7c-0.1,0.5-0.2,0.9-0.4,1.4c-0.1,0.2,0,0.3,0.2,0.4c0.1,0,0.1,0,0.2,0c0.1,0,0.2-0.1,0.2-0.2
		c0.2-0.5,0.3-1,0.4-1.5c0-0.2-0.1-0.3-0.2-0.4C20.7,10.4,20.5,10.5,20.5,10.7z"/>
	<path d="M6.3,13.1c-0.1-0.1-0.3-0.2-0.4-0.1c-0.1,0.1-0.2,0.3-0.1,0.4c0.3,0.4,0.6,0.9,0.9,1.2c0.1,0.1,0.2,0.1,0.3,0.1
		c0.1,0,0.1,0,0.2-0.1c0.1-0.1,0.1-0.3,0-0.4C6.9,13.9,6.6,13.5,6.3,13.1z"/>
	<path d="M9.4,16c-0.4-0.2-0.8-0.5-1.2-0.8c-0.1-0.1-0.3-0.1-0.4,0.1c-0.1,0.1-0.1,0.3,0.1,0.4c0.4,0.3,0.8,0.6,1.3,0.8
		c0.1,0,0.1,0,0.2,0c0.1,0,0.2-0.1,0.2-0.2C9.6,16.2,9.6,16,9.4,16z"/>
	<path d="M4.9,9.3C5,9.3,5,9.3,4.9,9.3c0.2,0,0.3-0.2,0.3-0.3c0-0.5,0.1-0.9,0.2-1.4c0-0.2-0.1-0.3-0.2-0.4C5,7.2,4.8,7.3,4.8,7.5
		C4.7,8,4.6,8.5,4.6,9C4.6,9.2,4.8,9.3,4.9,9.3z"/>
	<path d="M5.7,11.8c-0.2-0.4-0.3-0.9-0.4-1.4c0-0.2-0.2-0.3-0.4-0.2c0,0,0,0,0,0c-0.2,0-0.3,0.2-0.3,0.3C4.8,11,5,11.5,5.1,12
		c0.1,0.1,0.2,0.2,0.3,0.2c0,0,0,0,0.1,0C5.7,12.1,5.8,12,5.7,11.8z"/>
	<path d="M5.4,6.4c0.1,0,0.1,0,0.2,0c0.1,0,0.2-0.1,0.2-0.2C6,5.8,6.2,5.4,6.5,5c0.1-0.1,0.1-0.3-0.1-0.4S6,4.5,5.9,4.6
		C5.7,5.1,5.4,5.5,5.2,6C5.2,6.2,5.2,6.3,5.4,6.4z"/>
	<path d="M7.2,4c0.1,0,0.1,0,0.2-0.1C7.7,3.5,8,3.2,8.4,2.9c0.1-0.1,0.2-0.3,0.1-0.4C8.4,2.3,8.2,2.3,8,2.4c-0.4,0.3-0.8,0.6-1.1,1
		c-0.1,0.1-0.1,0.3,0,0.4C7,3.9,7.1,4,7.2,4z"/>
	<path d="M14.3,28.4c0.1,0.7,0.6,1.2,1.3,1.4c0.2,0.1,0.5,0.1,0.7,0c0.4-0.1,0.8-0.3,1.1-0.7l3-4.1l3.9,6.1c0.4,0.6,1.1,0.9,1.8,0.8
		c0.2,0,0.4-0.1,0.6-0.2c0.8-0.5,1.1-1.6,0.5-2.4l-3.9-6.1l5.6-1c0,0,0,0,0,0c0,0,0,0,0,0c0.9-0.2,1.6-1.1,1.4-2
		c-0.1-0.5-0.4-0.9-0.8-1.2c0,0-11.2-7.7-11.2-7.7l-4.5-3.1c-0.6-0.4-1.3-0.4-1.9,0C11.3,8.6,11,9.3,11.1,10l1,5.6"/>
	<path d="M12.2,16.9c-0.5-0.1-0.9-0.2-1.4-0.4c-0.2-0.1-0.3,0-0.4,0.2c-0.1,0.2,0,0.3,0.2,0.4c0.5,0.2,1,0.3,1.5,0.4
		c0.1,0,0.1,0,0.2,0c0.1,0,0.1-0.1,0.2-0.2C12.5,17.1,12.4,17,12.2,16.9z"/>
</g>
</svg>
