<?xml version="1.0" encoding="utf-8"?>
<!-- Generator: Adobe Illustrator 16.0.0, SVG Export Plug-In . SVG Version: 6.00 Build 0)  -->
<!DOCTYPE svg PUBLIC "-//W3C//DTD SVG 1.1//EN" "http://www.w3.org/Graphics/SVG/1.1/DTD/svg11.dtd">
<svg version="1.1" id="Layer_1" xmlns="http://www.w3.org/2000/svg" xmlns:xlink="http://www.w3.org/1999/xlink" x="0px" y="0px"
	 width="179.045px" height="148.119px" viewBox="0 0 179.045 148.119" enable-background="new 0 0 179.045 148.119"
	 xml:space="preserve">
<g>
	<linearGradient id="SVGID_1_" gradientUnits="userSpaceOnUse" x1="8.6328" y1="125.3887" x2="157.8626" y2="39.2308">
		<stop  offset="0" style="stop-color:#7FBADC"/>
		<stop  offset="1" style="stop-color:#A9D7E3"/>
	</linearGradient>
	<path fill="#444" d="M178.432,137.047c-2.127-5.113-4.592-11.641-5.074-13.703V70.732
		c0-9.612-7.819-17.432-17.431-17.432H116.71V20c0-11.028-8.972-20-20-20H27.236c-11.028,0-20,8.972-20,20v67.192
		c-0.49,2.438-3.764,11.149-6.623,18.026c-1.304,3.136-0.486,6.752,2.039,9.022c1.504,1.352,3.418,2.05,5.35,2.05
		c1.312,0,2.633-0.322,3.838-0.981c5.782-3.164,13.533-6.983,16.017-7.729h47.468v16.262c0,9.61,7.819,17.43,17.43,17.43h62.407
		c1.932,0.663,7.291,3.266,12.044,5.866c1.205,0.659,2.525,0.981,3.838,0.981c1.932,0,3.846-0.699,5.35-2.051
		C178.918,143.799,179.735,140.183,178.432,137.047z M27.236,91.58c-0.752,0-1.977,0-4.891,0.999
		c0.891-3.178,0.891-4.349,0.891-4.999V20c0-2.206,1.794-4,4-4H96.71c2.206,0,4,1.794,4,4v33.301h-7.956
		c-9.61,0-17.43,7.819-17.43,17.432V91.58H27.236z M155.927,125.271H92.754c-0.788,0-1.43-0.642-1.43-1.43V107.58v-16V70.732
		c0-0.789,0.642-1.432,1.43-1.432h7.956h16h39.217c0.789,0,1.431,0.643,1.431,1.432v53.109c0,0.332,0,0.783,0.116,1.546
		C156.766,125.271,156.297,125.271,155.927,125.271z"/>
	<linearGradient id="SVGID_2_" gradientUnits="userSpaceOnUse" x1="101.6709" y1="100.248" x2="112.0575" y2="94.2513">
		<stop  offset="0" style="stop-color:#7FBADC"/>
		<stop  offset="1" style="stop-color:#A9D7E3"/>
	</linearGradient>
	<circle fill="#444" cx="106.864" cy="97.251" r="5.995"/>
	<linearGradient id="SVGID_3_" gradientUnits="userSpaceOnUse" x1="49.416" y1="50.4346" x2="75.2086" y2="35.5432">
		<stop  offset="0" style="stop-color:#7FBADC"/>
		<stop  offset="1" style="stop-color:#A9D7E3"/>
	</linearGradient>
	<path fill="#444" d="M71.539,30.688c-3.17-2.957-7.028-4.456-11.469-4.456c-2.909,0-5.642,0.694-8.121,2.064
		c-2.481,1.372-4.444,3.222-5.842,5.509c-0.624,1.058-0.78,2.167-0.464,3.297c0.31,1.11,0.995,1.995,2.092,2.658
		c1.082,0.565,2.247,0.709,3.413,0.429c1.192-0.287,2.139-0.959,2.823-2.013c1.362-2.202,3.357-3.272,6.099-3.272
		c2.026,0,3.712,0.639,5.153,1.951c1.413,1.292,2.101,2.811,2.101,4.643c0,1.836-0.688,3.366-2.105,4.681
		c-1.438,1.332-3.122,1.979-5.148,1.979c-1.229,0-2.303,0.438-3.193,1.305c-0.701,0.682-1.132,1.453-1.288,2.301l-0.065,0.004v8.082
		c0,1.243,0.464,2.295,1.379,3.125c0.885,0.804,1.963,1.211,3.205,1.211c1.246,0,2.316-0.411,3.185-1.225
		c0.88-0.83,1.325-1.877,1.325-3.111v-3.646c3.234-0.889,5.976-2.612,8.154-5.131c2.372-2.741,3.574-6.1,3.574-9.982
		C76.346,37.165,74.729,33.665,71.539,30.688z"/>
	<linearGradient id="SVGID_4_" gradientUnits="userSpaceOnUse" x1="55.085" y1="76.0381" x2="64.7455" y2="70.4606">
		<stop  offset="0" style="stop-color:#7FBADC"/>
		<stop  offset="1" style="stop-color:#A9D7E3"/>
	</linearGradient>
	<circle fill="#444" cx="59.916" cy="73.25" r="5.576"/>
	<linearGradient id="SVGID_5_" gradientUnits="userSpaceOnUse" x1="119.1338" y1="100.249" x2="129.5202" y2="94.2524">
		<stop  offset="0" style="stop-color:#7FBADC"/>
		<stop  offset="1" style="stop-color:#A9D7E3"/>
	</linearGradient>
	<circle fill="#444" cx="124.328" cy="97.251" r="5.995"/>
	<linearGradient id="SVGID_6_" gradientUnits="userSpaceOnUse" x1="136.5977" y1="100.25" x2="146.9847" y2="94.2531">
		<stop  offset="0" style="stop-color:#7FBADC"/>
		<stop  offset="1" style="stop-color:#A9D7E3"/>
	</linearGradient>
	<circle fill="#444" cx="141.792" cy="97.251" r="5.995"/>
</g>
</svg>
