<?xml version="1.0" encoding="utf-8"?>
<!-- Generator: Adobe Illustrator 16.0.0, SVG Export Plug-In . SVG Version: 6.00 Build 0)  -->
<!DOCTYPE svg PUBLIC "-//W3C//DTD SVG 1.1//EN" "http://www.w3.org/Graphics/SVG/1.1/DTD/svg11.dtd">
<svg version="1.1" id="Layer_1" xmlns="http://www.w3.org/2000/svg" xmlns:xlink="http://www.w3.org/1999/xlink" x="0px" y="0px"
	 width="100px" height="100px" viewBox="0 0 100 100" enable-background="new 0 0 100 100" xml:space="preserve">
<g id="Your_Icon">
	
		<linearGradient id="SVGID_1_" gradientUnits="userSpaceOnUse" x1="50.8174" y1="100" x2="50.8174" y2="1.8516" gradientTransform="matrix(1 0 0 -1 0 101)">
		<stop  offset="0" style="stop-color:#FBF30A"/>
		<stop  offset="1" style="stop-color:#F2EA00"/>
	</linearGradient>
	<path fill="url(#SVGID_1_)" d="M77.382,20.905l2.37-3.553l1.807,1.168c0.41,0.266,0.869,0.394,1.323,0.394
		c0.802,0,1.585-0.394,2.052-1.117c0.73-1.132,0.407-2.645-0.727-3.376l-7.643-4.94c-1.131-0.729-2.644-0.406-3.375,0.724
		c-0.731,1.134-0.408,2.647,0.726,3.378l1.733,1.12l-2.303,3.455c-5.263-3.18-11.24-5.285-17.646-6V8.262
		c0-0.335-0.034-0.691-0.1-1.055h0.758c2.561,0,4.64-3.701,4.846-6.207h-20.77c0.205,2.506,2.284,6.207,4.845,6.207h0.757
		c-0.064,0.363-0.1,0.72-0.1,1.055v3.896c-21.801,2.43-38.75,20.904-38.753,43.357c0.003,24.098,19.534,43.629,43.634,43.633
		c24.101-0.004,43.635-19.535,43.638-43.633C94.453,41.41,87.76,28.88,77.382,20.905z M50.816,89.382
		c-18.7-0.032-33.836-15.165-33.873-33.866c0.035-18.706,15.171-33.84,33.873-33.872c18.705,0.032,33.836,15.166,33.871,33.872
		C84.652,74.217,69.521,89.35,50.816,89.382z"/>
	
		<linearGradient id="SVGID_2_" gradientUnits="userSpaceOnUse" x1="50.8184" y1="71.0469" x2="50.8184" y2="36.1382" gradientTransform="matrix(1 0 0 -1 0 101)">
		<stop  offset="0" style="stop-color:#F2EA00"/>
		<stop  offset="1" style="stop-color:#F2EA00"/>
	</linearGradient>
	<path fill="url(#SVGID_2_)" d="M50.428,29.953c-2.111,0.023-3.802,1.474-3.783,3.24l-2.34,28.558
		c0.018,1.76,4.444,3.142,6.554,3.11c2.104-0.029,6.496-1.51,6.473-3.271l-3.05-28.491C54.26,31.336,52.532,29.927,50.428,29.953z"
		/>
</g>
</svg>
