<?xml version="1.0" encoding="utf-8"?>
<!-- Generator: Adobe Illustrator 16.0.0, SVG Export Plug-In . SVG Version: 6.00 Build 0)  -->
<!DOCTYPE svg PUBLIC "-//W3C//DTD SVG 1.1//EN" "http://www.w3.org/Graphics/SVG/1.1/DTD/svg11.dtd">
<svg version="1.1" id="Layer_1" xmlns="http://www.w3.org/2000/svg" xmlns:xlink="http://www.w3.org/1999/xlink" x="0px" y="0px"
	 width="152.72px" height="136.318px" viewBox="0 0 152.72 136.318" enable-background="new 0 0 152.72 136.318"
	 xml:space="preserve">
<g>
	<path fill="#eee" fill-rule="evenodd" clip-rule="evenodd" d="M28.315,66.488c1.14,4.14,2.189,7.952,3.224,11.71
		c-15.578,9.032-20.553,18.038-16.377,29.405c3.681,10.021,14.836,16.344,25.671,14.551c12.472-2.064,18.471-10.949,18.512-27.974
		c1.774,0,3.555-0.017,5.334,0.003c9.822,0.104,19.647,0.111,29.466,0.375c4.148,0.111,7.283-0.601,10.434-4.031
		c5.94-6.469,16.35-5.654,22.197,0.898c5.152,5.774,4.726,15.216-0.916,20.242c-6.87,6.122-17.106,5.627-22.59-1.459
		c-1.85-2.391-3.615-3.312-6.576-3.268c-6.654,0.098-13.318-0.127-19.972-0.387c-2.732-0.105-3.968,0.695-4.873,3.555
		c-5.013,15.838-20.588,26.816-35.827,25.633c-19.29-1.497-32.42-12.734-35.596-30.463C-2.535,88.739,10.252,70.596,28.315,66.488z"
		/>
	<path fill="#eee" fill-rule="evenodd" clip-rule="evenodd" d="M71.478,56.953c-6.512,10.576-12.72,20.794-19.093,30.908
		c-1.534,2.434-1.841,4.354-0.719,7.248c3.238,8.356-1.621,17.275-10.159,19.597c-8.354,2.272-17.078-2.722-19.037-10.896
		c-2.041-8.514,3.626-16.242,12.768-18.123c2.247-0.463,4.787-2.128,6.101-4.004c3.906-5.575,7.274-11.527,10.837-17.341
		c0.339-0.554,0.569-1.174,0.832-1.727c-15.44-19.349-16.911-36.021-4.478-50.168c11.6-13.198,32.217-16.362,47.35-7.267
		c14.186,8.526,20.832,25.373,15.376,39.655c-3.922-1.001-7.888-2.013-12.369-3.157c1.446-8.201,0.753-16.195-5.79-21.644
		c-3.884-3.235-9.077-5.915-14.013-6.667c-11.575-1.763-21.562,5.521-24.526,16.497C51.474,41.287,56.928,50.219,71.478,56.953z"/>
	<path fill="#eee" fill-rule="evenodd" clip-rule="evenodd" d="M103.245,68.029c25.093-6.869,41.082,6.545,46.949,20.418
		c6.285,14.86,0.506,32.798-13.603,41.982c-14.537,9.465-35.054,7.324-46.41-5.012c3.133-2.9,6.273-5.807,9.434-8.732
		c12.342,9.007,24.925,8.617,33.87-1.163c7.23-7.905,7.429-20.288,0.455-28.319c-8.72-10.043-21.101-10.578-34.86-1.179
		c-2.516-4.304-5.023-8.576-7.516-12.857c-3.6-6.179-7.277-12.314-10.741-18.569c-1.49-2.69-3.306-4.061-6.52-4.488
		c-9.049-1.2-14.289-9.051-12.21-17.656c2.08-8.613,10.798-13.333,19.405-10.508c8.776,2.881,12.7,11.038,9.729,19.342
		c-0.71,1.983-0.624,4.893,0.341,6.718C95.134,54.757,99.222,61.23,103.245,68.029z"/>
</g>
</svg>
