<svg xmlns="http://www.w3.org/2000/svg" xmlns:xlink="http://www.w3.org/1999/xlink" version="1.1" id="Layer_1" x="0px" y="0px" width="100px" height="100px" viewBox="0 0 100 100" enable-background="new 0 0 100 100" xml:space="preserve">
<path fill="#eee" d="M88.627,15.162H11.373c-4.733,0-8.568,3.825-8.568,8.559V76.27c0,4.72,3.835,8.556,8.568,8.568h77.254  c4.734-0.013,8.557-3.835,8.568-8.568V23.721C97.184,18.987,93.348,15.162,88.627,15.162z M87.746,21.085  c-12.861,9.238-25.722,18.481-38.583,27.725c-12.818-9.212-25.635-18.425-38.453-27.632c0.213-0.055,0.432-0.093,0.662-0.093H87.746  z M88.627,78.905H11.373c-1.462,0-2.636-1.174-2.636-2.636V27.052c12.925,9.291,25.851,18.581,38.776,27.866l0,0  c0.336,0.252,0.72,0.429,1.13,0.513c0.054,0.012,0.106,0.015,0.16,0.022c0.119,0.017,0.237,0.031,0.36,0.031s0.241-0.015,0.36-0.031  c0.053-0.008,0.106-0.011,0.16-0.022c0.411-0.084,0.794-0.261,1.13-0.513l0,0c13.483-9.686,26.967-19.377,40.45-29.069v50.42  C91.264,77.719,90.076,78.905,88.627,78.905z"/>
</svg>