<?xml version="1.0" encoding="utf-8"?>
<!-- Generator: Adobe Illustrator 16.0.0, SVG Export Plug-In . SVG Version: 6.00 Build 0)  -->
<!DOCTYPE svg PUBLIC "-//W3C//DTD SVG 1.1//EN" "http://www.w3.org/Graphics/SVG/1.1/DTD/svg11.dtd">
<svg version="1.1" id="Layer_1" xmlns="http://www.w3.org/2000/svg" xmlns:xlink="http://www.w3.org/1999/xlink" x="0px" y="0px"
	 width="95.566px" height="103.733px" viewBox="-22.314 -1.866 95.566 103.733"
	 enable-background="new -22.314 -1.866 95.566 103.733" xml:space="preserve">
<path fill="#eee" d="M8.367-0.184l-27.695,21.828c-3.398,2.68-3.983,7.604-1.305,11.006L31.565,98.88
	c2.68,3.399,7.605,3.983,11.006,1.307l27.697-21.829c3.397-2.681,3.981-7.606,1.303-11.005L19.373,1.119
	C16.694-2.281,11.767-2.863,8.367-0.184z M-3.361,19.646l6.054-4.771c0.451-0.354,1.107-0.277,1.466,0.174
	c0.356,0.453,0.277,1.109-0.175,1.467l-6.054,4.771c-0.453,0.357-1.109,0.28-1.467-0.173C-3.892,20.66-3.814,20.003-3.361,19.646z
	 M-7.136,22.113c0.54-0.425,1.322-0.333,1.748,0.207s0.332,1.322-0.208,1.747c-0.54,0.426-1.32,0.333-1.746-0.207
	C-7.768,23.321-7.676,22.538-7.136,22.113z M53.801,85.949c-2.124,1.674-5.202,1.31-6.877-0.813
	c-1.676-2.127-1.312-5.204,0.813-6.879c2.124-1.675,5.203-1.311,6.88,0.815C56.292,81.196,55.927,84.274,53.801,85.949z
	 M60.934,63.415L30.225,87.617L-9.996,36.585l30.709-24.203L60.934,63.415z"/>
</svg>

